<?xml version="1.0" encoding="utf-8"?>
<!-- Generator: Adobe Illustrator 22.0.1, SVG Export Plug-In . SVG Version: 6.00 Build 0)  -->
<svg version="1.1" id="Layer_1" xmlns="http://www.w3.org/2000/svg" xmlns:xlink="http://www.w3.org/1999/xlink" x="0px" y="0px"
	 viewBox="0 0 845.7 385.2" style="enable-background:new 0 0 845.7 385.2;" xml:space="preserve">
<style type="text/css">
	.st0{fill:none;stroke:#EFEFEF;stroke-miterlimit:10;}
</style>
<g>
	<path class="st0" d="M179.2,85.2L0,170.5l28.1-85.3L137,12.4L179.2,85.2z"/>
	<path class="st0" d="M219.9,150l-40.7-64.8L137,12.4L219.9,50V150z M304,75l-84.1,75V50l150-25.3L304,75z"/>
	<path class="st0" d="M448,124.8L304,75l65.9-50.3l50,25.3L448,124.8z M759.2,98.4L619.9,150V50l70.3-50L759.2,98.4z"/>
	<path class="st0" d="M800,170.5l-40.8-72.1L690.2,0l137.9,85.2L800,170.5z M569.9,91.4L448,124.8L419.9,50l100-37.6L569.9,91.4z"/>
	<path class="st0" d="M619.9,150l-50-58.6l-50-79l100,37.6V150z M89.6,200l-43.9,50L0,170.5l179.2-85.3L89.6,200z"/>
	<path class="st0" d="M294.9,282.9L89.6,200l89.6-114.8l40.7,64.8L294.9,282.9z"/>
	<path class="st0" d="M319.9,250l-25,32.9l-75-132.9L304,75L319.9,250z"/>
	<path class="st0" d="M464.9,158.2l-145,91.8L304,75l144,49.8L464.9,158.2z M697.5,217.9l-50.9-8.8L619.9,150l139.3-51.6
		L697.5,217.9z"/>
	<path class="st0" d="M845.7,250l-148.2-32.1l61.7-119.5l40.8,72.1L845.7,250z M519.9,250l-55-91.8L448,124.8l121.9-33.4L519.9,250z
		 M646.6,209.1L519.9,250l50-158.6l50,58.6L646.6,209.1z M137,312.4L28.1,385.2L45.7,250l43.9-50L137,312.4z"/>
	<path class="st0" d="M219.9,350L137,312.4L89.6,200l205.3,82.9L219.9,350z"/>
	<path class="st0" d="M369.9,324.7l-150,25.3l75-67.1l25-32.9L369.9,324.7z"/>
	<path class="st0" d="M419.9,350l-50-25.3l-50-74.7l145-91.8L419.9,350z M690.2,300l-70.3,50l26.7-140.9l50.9,8.8L690.2,300z"/>
	<path class="st0" d="M828.1,385.2L690.2,300l7.3-82.1L845.7,250L828.1,385.2z M519.9,312.4l-100,37.6l45-191.8l55,91.8V312.4z
		 M619.9,350l-100-37.6V250l126.7-40.9L619.9,350z"/>
</g>
</svg>
