<svg xmlns="http://www.w3.org/2000/svg" xmlns:xlink="http://www.w3.org/1999/xlink" viewBox="0 0 404.1 372.3"><defs><linearGradient id="linear-gradient" x1="373.87" y1="198.74" x2="374.85" y2="386.28" gradientUnits="userSpaceOnUse"><stop offset="0" stop-color="#fff"/><stop offset="0.06" stop-color="#fffffd"/><stop offset="0.09" stop-color="#fffdf6"/><stop offset="0.1" stop-color="#fffbeb"/><stop offset="0.12" stop-color="#fff7da"/><stop offset="0.13" stop-color="#fef3c4"/><stop offset="0.14" stop-color="#feeda9"/><stop offset="0.14" stop-color="#fee994"/><stop offset="0.25" stop-color="#fce68e"/><stop offset="0.39" stop-color="#f5dd7c"/><stop offset="0.56" stop-color="#e9cd5e"/><stop offset="0.74" stop-color="#dab936"/><stop offset="0.77" stop-color="#d7b52f"/><stop offset="1"/></linearGradient><linearGradient id="linear-gradient-2" x1="375.56" y1="267.37" x2="375.56" y2="267.37" xlink:href="#linear-gradient"/><linearGradient id="linear-gradient-3" x1="410" y1="188.66" x2="410" y2="188.66" xlink:href="#linear-gradient"/></defs><title>me-2</title><g id="Layer_3" data-name="Layer 3"><path d="M280.6,289.4c3.1-9.4,13.6-37.1,41.3-52.4,17.6-9.7,35.3-10.6,47-11.2,8.8-.5,21.4-1.1,36.9,3.7a93.5,93.5,0,0,1,29.8,15.3c22,17.1,29.8,40,32.5,49.5l-142.5-3.7Z" transform="translate(-182.5 -158.8)" style="fill:url(#linear-gradient)"/><polyline points="285.6 135.5 403.5 139.4 359.9 339.7 357.2 360.2 337.1 371.8 20.6 356.6 19.8 332.3 19.7 329.5 0.6 128.7 98.1 130.7" style="fill:none;stroke:#fff;stroke-miterlimit:10"/><polygon points="359.9 339.7 328.6 343.2 19.8 332.3 20.6 356.6 337.1 371.8 357.2 360.2 359.9 339.7" style="fill:#3d3d3d;stroke:#3d3d3d;stroke-miterlimit:10"/><path d="M427.5,292.9" transform="translate(-182.5 -158.8)" style="fill:none;stroke:#00b0ff;stroke-miterlimit:10"/><path d="M429.1,293.5a66.1,66.1,0,0,0-7.6-12.5,57.7,57.7,0,0,0-19.7-16.8,56.1,56.1,0,0,0-26.2-6.1,59.5,59.5,0,0,0-20.7,4c-4.8,1.8-11.4,4.3-17.8,10.3a44.7,44.7,0,0,0-11.9,18.1l16.5.3a43.8,43.8,0,0,1,16.5-14.3c18.2-8.7,44.2-2.9,53.3,16.2l17.6.8" transform="translate(-182.5 -158.8)" style="fill:#787878;stroke:#787878;stroke-miterlimit:10"/><path d="M202.3,491.1,183.1,287.4l150.2,4L586,298.1q-21.7,100.2-43.6,200.4L511.1,502Z" transform="translate(-182.5 -158.8)" style="fill:#787878;stroke:#787878;stroke-miterlimit:10"/><path d="M375.6,267.4" transform="translate(-182.5 -158.8)" style="fill:url(#linear-gradient-2)"/><path d="M421.3,293.1a50.7,50.7,0,0,0-10.5-12.7,51.8,51.8,0,0,0-34.3-12.9,49.7,49.7,0,0,0-27.7,8.6,50.4,50.4,0,0,0-14.1,14.7" transform="translate(-182.5 -158.8)" style="fill:#fff;stroke:#787878;stroke-miterlimit:10"/><path d="M396.5,292.6l-35.5-1a22.3,22.3,0,0,1,17.4-8.3A21.9,21.9,0,0,1,396.5,292.6Z" transform="translate(-182.5 -158.8)" style="fill:#824d2a"/><path d="M410,188.7" transform="translate(-182.5 -158.8)" style="fill:url(#linear-gradient-3)"/><path d="M412,187.5" transform="translate(-182.5 -158.8)"/></g><g id="Layer_5" data-name="Layer 5"><path d="M383.6,229.1a63.9,63.9,0,0,1,27.2-40.3c.5-.4,0-1.2-.5-.9a65,65,0,0,0-27.6,40.9c-.2.6.8.9.9.3Z" transform="translate(-182.5 -158.8)"/><path d="M412.4,164.8a67.6,67.6,0,0,0-13.6,12.8c-18.2,22.2-18.1,49.7-17.1,49.9s1.5-14.6,12.6-29.8A71.8,71.8,0,0,1,414.8,179" transform="translate(-182.5 -158.8)" style="fill:none;stroke:#000;stroke-miterlimit:10"/><path d="M377.9,163.6a42.3,42.3,0,0,1,4.6,11.5,39.7,39.7,0,0,1,1,13.6c-1.4,20.2-2,40.2-1.8,40.2s1.1-14.7,5.1-31.8a196.8,196.8,0,0,1,8.1-26.4" transform="translate(-182.5 -158.8)" style="fill:none;stroke:#000;stroke-miterlimit:10"/><path d="M371,169.3a50.8,50.8,0,0,1,6.7,11.1c1.8,4.3,3.1,9.2,3.8,18.1,1.2,15.7-.7,29.5-1.4,29.4s5-26.1-7.7-50.9a72,72,0,0,0-13.2-17.9" transform="translate(-182.5 -158.8)" style="fill:none;stroke:#000;stroke-miterlimit:10"/><path d="M364.7,172.7a89.8,89.8,0,0,1,9.3,18.5c6.9,19.3,5.2,37.1,4.3,37.1s.5-13.8-7.3-28c-6.3-11.3-15.9-18.3-24-22.7" transform="translate(-182.5 -158.8)" style="fill:none;stroke:#000;stroke-miterlimit:10"/></g><g id="Layer_4" data-name="Layer 4"><path d="M401.3,352.1c0,8.3-3.4,10.7-7,13.2s-9.2,1.9-9.2,1.9l-1.3-11.9-2.3,6h-4.7l-2.4-6-1.3,11.9s-5.5.7-9.1-1.9-7.1-4.9-7.1-13.2H314.8s19,7.9,19,35.8c0,0,38.7-5.3,45.3,27.4,6.6-32.7,45.3-27.4,45.3-27.4,0-27.9,19-35.8,19-35.8Z" transform="translate(-182.5 -158.8)" style="fill:#fff;stroke:#44453d;stroke-miterlimit:10"/><path d="M382.7,361.4" transform="translate(-182.5 -158.8)" style="fill:#fff"/></g></svg>